<svg xmlns="http://www.w3.org/2000/svg" width="300" height="300" viewBox="0 0 300 300">
  <!-- Outer border -->
  <rect x="0" y="0" width="300" height="300" fill="none" stroke="#50e3c2" stroke-width="4"/>

  <!-- Thicker lines for the 3x3 grids -->
  <line x1="100" y1="0" x2="100" y2="300" stroke="#50e3c2" stroke-width="4"/>
  <line x1="200" y1="0" x2="200" y2="300" stroke="#50e3c2" stroke-width="4"/>
  <line x1="0" y1="100" x2="300" y2="100" stroke="#50e3c2" stroke-width="4"/>
  <line x1="0" y1="200" x2="300" y2="200" stroke="#50e3c2" stroke-width="4"/>

  <!-- Lighter lines for individual cells -->
  <line x1="33.33" y1="0" x2="33.33" y2="300" stroke="#50e3c2" stroke-width="1"/>
  <line x1="66.66" y1="0" x2="66.66" y2="300" stroke="#50e3c2" stroke-width="1"/>
  <line x1="133.33" y1="0" x2="133.33" y2="300" stroke="#50e3c2" stroke-width="1"/>
  <line x1="166.66" y1="0" x2="166.66" y2="300" stroke="#50e3c2" stroke-width="1"/>
  <line x1="233.33" y1="0" x2="233.33" y2="300" stroke="#50e3c2" stroke-width="1"/>
  <line x1="266.66" y1="0" x2="266.66" y2="300" stroke="#50e3c2" stroke-width="1"/>
  <line x1="0" y1="33.33" x2="300" y2="33.33" stroke="#50e3c2" stroke-width="1"/>
  <line x1="0" y1="66.66" x2="300" y2="66.66" stroke="#50e3c2" stroke-width="1"/>
  <line x1="0" y1="133.33" x2="300" y2="133.33" stroke="#50e3c2" stroke-width="1"/>
  <line x1="0" y1="166.66" x2="300" y2="166.66" stroke="#50e3c2" stroke-width="1"/>
  <line x1="0" y1="233.33" x2="300" y2="233.33" stroke="#50e3c2" stroke-width="1"/>
  <line x1="0" y1="266.66" x2="300" y2="266.66" stroke="#50e3c2" stroke-width="1"/>

  <!-- Example numbers in the grid -->
  <text x="16" y="30" fill='#50e3c2' font-family="Arial" font-size="24">5</text>
  <text x="50" y="30" fill='#50e3c2' font-family="Arial" font-size="24">3</text>
  <text x="110" y="30" fill='#50e3c2' font-family="Arial" font-size="24">7</text>
  <text x="210" y="30" fill='#50e3c2' font-family="Arial" font-size="24">6</text>
  
  <text x="16" y="100" fill='#50e3c2' font-family="Arial" font-size="24">6</text>
  <text x="50" y="100" fill='#50e3c2' font-family="Arial" font-size="24">1</text>
  <text x="160" y="100" fill='#50e3c2' font-family="Arial" font-size="24">9</text>
  <text x="210" y="100" fill='#50e3c2' font-family="Arial" font-size="24">5</text>

  <text x="100" y="160" fill='#50e3c2' font-family="Arial" font-size="24">9</text>
  <text x="160" y="160" fill='#50e3c2' font-family="Arial" font-size="24">8</text>
  <text x="260" y="160" fill='#50e3c2' font-family="Arial" font-size="24">6</text>

  <text x="100" y="260" fill='#50e3c2' font-family="Arial" font-size="24">4</text>
  <text x="210" y="260" fill='#50e3c2' font-family="Arial" font-size="24">2</text>
  <text x="260" y="260" fill='#50e3c2' font-family="Arial" font-size="24">3</text>
</svg>
